<?xml version="1.0" standalone="no"?>
<!DOCTYPE svg PUBLIC "-//W3C//DTD SVG 20010904//EN"
 "http://www.w3.org/TR/2001/REC-SVG-20010904/DTD/svg10.dtd">
<svg version="1.0" xmlns="http://www.w3.org/2000/svg"
 width="980.000000pt" height="980.000000pt" viewBox="0 0 980.000000 980.000000"
 preserveAspectRatio="xMidYMid meet">

<g transform="translate(0.000000,980.000000) scale(0.100000,-0.100000)"
fill="#000000" stroke="none">
<path d="M7034 5976 c3 -12 3 -26 0 -29 -10 -10 -34 4 -28 17 3 6 -5 -1 -18
-15 -14 -14 -37 -29 -52 -33 -15 -4 -24 -11 -21 -16 7 -11 -19 -77 -39 -99 -8
-9 -37 -40 -65 -69 -28 -29 -51 -57 -51 -62 0 -4 -23 -27 -51 -49 -29 -23 -48
-41 -44 -41 5 0 -8 -16 -27 -36 -20 -19 -42 -48 -48 -64 -7 -16 -30 -40 -52
-55 -35 -23 -38 -24 -28 -6 6 11 19 25 30 31 11 6 25 20 31 31 9 19 8 20 -10
14 -13 -4 -21 -2 -21 5 0 6 -26 -11 -57 -39 -41 -35 -61 -47 -69 -40 -9 7 -14
4 -19 -10 -3 -12 -12 -21 -18 -21 -7 0 -29 -11 -49 -25 -31 -21 -36 -22 -31
-8 5 15 3 15 -10 -2 -9 -11 -17 -25 -17 -32 0 -6 -5 -15 -10 -18 -6 -4 -10 -3
-9 2 4 21 -3 20 -27 -4 -19 -19 -28 -23 -34 -13 -4 7 -13 9 -19 5 -7 -4 -18
-2 -25 4 -7 6 -2 -12 12 -40 35 -70 40 -178 14 -276 -13 -50 -16 -73 -8 -73
37 1 104 48 178 125 99 104 158 138 238 138 67 0 114 -22 136 -66 9 -17 18
-34 20 -36 1 -2 17 13 35 33 41 47 78 66 127 66 44 0 64 -17 81 -70 9 -30 6
-51 -19 -145 -57 -208 -82 -330 -84 -400 -1 -65 1 -70 19 -67 32 4 90 76 121
147 31 75 49 80 76 25 59 -121 -57 -308 -211 -341 -98 -20 -159 9 -202 98
l-23 47 -15 -25 c-22 -33 -80 -87 -115 -105 -40 -22 -126 -29 -169 -15 -51 17
-101 80 -120 149 -22 79 -31 196 -19 265 7 44 6 57 -3 53 -6 -2 -38 -7 -69
-11 -54 -7 -58 -10 -77 -47 -34 -67 -103 -169 -167 -249 -96 -119 -187 -180
-248 -165 -53 14 -119 155 -139 301 l-8 50 -28 -62 c-62 -138 -173 -262 -252
-284 -108 -29 -188 29 -208 151 -12 77 -6 162 27 330 28 148 28 140 9 140 -59
0 -227 -273 -290 -470 -43 -139 -48 -147 -92 -155 -74 -12 -123 31 -123 110 0
19 -3 35 -7 35 -5 0 -27 -23 -51 -50 -68 -79 -157 -113 -240 -90 -46 12 -97
66 -107 112 -8 36 -16 35 -38 -1 -21 -36 -83 -86 -131 -106 -68 -29 -156 -16
-205 28 -30 28 -71 113 -71 150 0 15 -3 27 -7 27 -5 0 -25 -26 -45 -58 -76
-118 -208 -222 -327 -259 -72 -22 -208 -21 -287 2 -162 46 -280 188 -326 390
l-18 80 6 -80 c5 -81 12 -136 21 -167 3 -12 -1 -18 -14 -18 -14 0 -15 -2 -4
-9 11 -7 9 -10 -7 -15 -12 -4 -34 1 -55 13 -23 13 -38 16 -45 9 -6 -6 -12 -6
-17 2 -5 8 -11 6 -21 -7 -13 -17 -15 -17 -29 1 -9 13 -21 17 -37 13 -14 -4
-29 0 -41 11 -10 9 -37 18 -60 19 -23 1 -59 3 -79 4 -21 1 -35 6 -32 11 3 4
-4 8 -15 8 -12 0 -20 6 -18 13 1 6 -6 11 -16 9 -9 -2 -17 2 -17 8 0 5 -8 10
-18 10 -10 0 -22 3 -26 8 -4 4 -11 7 -15 7 -3 0 -20 12 -36 28 -145 134 -150
-260 -8 -686 87 -264 280 -612 470 -847 94 -118 289 -317 403 -412 721 -603
1661 -830 2585 -623 405 91 801 282 1140 549 125 98 357 330 457 456 405 511
618 1119 618 1760 0 214 -18 331 -80 520 -32 99 -85 213 -106 231 -8 6 -14 16
-14 22 0 5 -15 28 -34 51 -18 23 -36 51 -40 64 -4 12 -11 22 -16 22 -5 0 -12
9 -15 20 -4 11 -11 18 -16 15 -5 -4 -13 5 -19 19 -5 14 -16 26 -23 26 -8 0
-20 12 -27 26 -8 14 -28 35 -45 46 -16 12 -45 37 -62 56 -18 20 -33 30 -33 24
0 -7 -4 -12 -10 -12 -5 0 -10 7 -10 15 0 8 -8 15 -18 15 -10 0 -23 5 -30 12
-9 9 -12 9 -12 -1 0 -17 -20 -3 -28 20 -7 17 -9 17 -36 4 -16 -9 -30 -14 -30
-13 -24 48 -31 58 -39 58 -5 0 -7 -11 -3 -24z m-557 -580 c0 -7 -8 -18 -18
-25 -17 -10 -18 -9 -7 14 12 27 25 33 25 11z m-3558 -2328 c44 -35 123 -99
177 -142 249 -204 444 -328 804 -511 113 -58 216 -113 229 -124 63 -49 -34
-54 -197 -11 -314 84 -618 259 -861 494 -182 177 -303 356 -241 356 5 0 45
-28 89 -62z"/>
<path d="M6842 5827 c-18 -18 -32 -36 -32 -40 0 -13 50 25 61 45 17 32 5 30
-29 -5z"/>
<path d="M6733 5728 c-6 -7 -16 -23 -22 -36 -12 -22 -11 -23 7 -13 30 16 47
40 35 52 -7 7 -13 6 -20 -3z"/>
<path d="M6609 5578 c-12 -23 -12 -23 10 -4 23 21 26 26 11 26 -5 0 -15 -10
-21 -22z"/>
<path d="M6580 5540 c-9 -6 -10 -10 -3 -10 6 0 15 5 18 10 8 12 4 12 -15 0z"/>
<path d="M5859 5195 c-17 -30 -35 -55 -39 -55 -5 0 -10 -15 -12 -32 -2 -22 -9
-34 -20 -36 -10 -2 -18 2 -18 9 0 6 8 18 18 25 16 13 16 14 0 8 -11 -4 -18 -1
-18 6 0 6 -5 8 -10 5 -6 -4 -17 -2 -24 4 -40 33 -32 -513 9 -575 15 -23 18
-24 38 -11 31 19 116 134 156 209 l34 64 -37 39 c-52 57 -80 152 -74 253 3 45
12 91 22 110 28 54 8 36 -25 -23z"/>
<path d="M6024 5149 c-25 -28 -27 -140 -3 -164 15 -15 17 -11 29 44 25 119 15
165 -26 120z"/>
<path d="M3645 5110 c-3 -5 -27 -16 -53 -24 -33 -10 -40 -15 -22 -15 23 -1 90
32 90 44 0 8 -8 6 -15 -5z"/>
<path d="M5475 5058 c-16 -24 -34 -47 -42 -51 -8 -5 -11 -17 -7 -32 5 -19 2
-23 -18 -22 -13 0 -30 -3 -38 -7 -12 -5 -24 10 -50 67 l-35 73 -1 -115 c0 -87
-7 -144 -26 -226 -38 -161 -41 -190 -22 -206 13 -11 22 -10 52 6 82 44 174
238 193 402 6 54 14 110 19 126 12 37 7 34 -25 -15z"/>
<path d="M4423 4907 c-71 -252 -90 -376 -62 -404 33 -33 127 53 180 166 39 83
99 266 98 300 0 16 -7 2 -18 -35 -10 -34 -29 -83 -43 -110 -20 -39 -32 -50
-54 -53 -26 -3 -27 -4 -9 -11 13 -6 3 -8 -30 -7 l-50 2 1 45 c0 25 8 92 17
149 9 57 16 105 14 107 -1 1 -21 -66 -44 -149z"/>
<path d="M4642 5025 c0 -16 2 -22 5 -12 2 9 2 23 0 30 -3 6 -5 -1 -5 -18z"/>
<path d="M4860 5025 c-1 -11 -5 -44 -9 -72 -4 -29 -6 -53 -4 -53 1 0 10 14 18
30 13 24 14 40 7 73 -6 23 -11 33 -12 22z"/>
<path d="M4057 4970 c-55 -48 -123 -194 -141 -302 -8 -44 9 -126 31 -150 44
-49 115 2 170 119 105 227 66 444 -60 333z m103 -50 c15 -28 -5 -151 -34 -202
-20 -36 -31 -44 -72 -55 -84 -22 -94 -19 -94 25 0 49 41 171 72 213 43 59 102
68 128 19z m-123 -296 c-3 -3 -12 -4 -19 -1 -8 3 -5 6 6 6 11 1 17 -2 13 -5z"/>
<path d="M6582 4965 c-68 -61 -133 -211 -148 -343 -9 -83 12 -122 67 -122 31
0 86 56 118 119 29 55 67 193 75 269 12 111 -37 145 -112 77z"/>
<path d="M5365 4974 c-21 -16 -5 -18 29 -5 16 6 17 9 5 13 -8 3 -23 0 -34 -8z"/>
<path d="M3605 4619 c-15 -23 -90 -69 -114 -69 -14 0 -33 -5 -41 -10 -11 -7
-5 -8 20 -4 19 4 32 4 29 0 -6 -6 -105 -21 -191 -29 -9 -1 -14 -5 -12 -9 3 -4
-12 -8 -33 -8 -21 0 -61 -6 -90 -14 -57 -15 -82 -8 -132 37 -20 18 -20 16 5
-16 17 -23 54 -50 91 -69 56 -27 69 -30 135 -26 91 5 168 38 239 105 50 47
116 123 105 123 -2 0 -8 -5 -11 -11z m-262 -146 c-7 -2 -21 -2 -30 0 -10 3 -4
5 12 5 17 0 24 -2 18 -5z m-160 -30 c-7 -2 -19 -2 -25 0 -7 3 -2 5 12 5 14 0
19 -2 13 -5z"/>
</g>
</svg>
